name p1_grf_mean_speed_1.0
datacolumns 13
datarows 40
range 0.0000000000 0.3900000000
endheader
time	grf_x_l_mean	grf_x_l_var	grf_y_l_mean	grf_y_l_var	grf_z_l_mean	grf_z_l_var	grf_x_r_mean	grf_x_r_var	grf_y_r_mean	grf_y_r_var	grf_z_r_mean	grf_z_r_var
0.0000000000	81.3901852537	1.0000000000	684.7001939555	1.0000000000	0.0000000000	0.0000000000	6.7781994197	1.0000000000	10.8363454916	1.0000000000	0.0000000000	0.0000000000
0.0100000000	90.3971590011	1.0000000000	675.4041131459	1.0000000000	0.0000000000	0.0000000000	10.0829352731	1.0000000000	40.7651631919	1.0000000000	0.0000000000	0.0000000000
0.0200000000	99.5320258591	1.0000000000	658.9787364899	1.0000000000	0.0000000000	0.0000000000	9.3599025654	1.0000000000	88.8810085978	1.0000000000	0.0000000000	0.0000000000
0.0300000000	107.7879855960	1.0000000000	633.4330051488	1.0000000000	0.0000000000	0.0000000000	-0.3434406169	1.0000000000	151.6772917354	1.0000000000	0.0000000000	0.0000000000
0.0400000000	114.3357657563	1.0000000000	596.9424664502	1.0000000000	0.0000000000	0.0000000000	-19.0182107119	1.0000000000	223.8293379834	1.0000000000	0.0000000000	0.0000000000
0.0500000000	118.3866568539	1.0000000000	548.7139666397	1.0000000000	0.0000000000	0.0000000000	-41.5385512266	1.0000000000	300.3098078426	1.0000000000	0.0000000000	0.0000000000
0.0600000000	118.4706820854	1.0000000000	489.0379106318	1.0000000000	0.0000000000	0.0000000000	-63.2395390141	1.0000000000	376.0565897706	1.0000000000	0.0000000000	0.0000000000
0.0700000000	113.4270803377	1.0000000000	419.5082086782	1.0000000000	0.0000000000	0.0000000000	-81.3890052822	1.0000000000	445.4008582227	1.0000000000	0.0000000000	0.0000000000
0.0800000000	103.2385258676	1.0000000000	343.0918411346	1.0000000000	0.0000000000	0.0000000000	-94.5777902378	1.0000000000	503.6600137169	1.0000000000	0.0000000000	0.0000000000
0.0900000000	88.1729480760	1.0000000000	264.0888707035	1.0000000000	0.0000000000	0.0000000000	-102.3591507663	1.0000000000	548.4703298441	1.0000000000	0.0000000000	0.0000000000
0.1000000000	69.1336800827	1.0000000000	187.9941842211	1.0000000000	0.0000000000	0.0000000000	-105.4179534929	1.0000000000	580.4924999137	1.0000000000	0.0000000000	0.0000000000
0.1100000000	48.1710995385	1.0000000000	120.7019702082	1.0000000000	0.0000000000	0.0000000000	-104.8730995262	1.0000000000	603.0476707832	1.0000000000	0.0000000000	0.0000000000
0.1200000000	28.6486397794	1.0000000000	67.1365961125	1.0000000000	0.0000000000	0.0000000000	-101.6268906300	1.0000000000	619.6436817019	1.0000000000	0.0000000000	0.0000000000
0.1300000000	13.4371742963	1.0000000000	29.6343305548	1.0000000000	0.0000000000	0.0000000000	-96.5387542733	1.0000000000	632.3510896739	1.0000000000	0.0000000000	0.0000000000
0.1400000000	3.8515546962	1.0000000000	7.5829127369	1.0000000000	0.0000000000	0.0000000000	-90.3628084020	1.0000000000	642.2150399709	1.0000000000	0.0000000000	0.0000000000
0.1500000000	0.0000000000	1.0000000000	0.0000000000	1.0000000000	0.0000000000	0.0000000000	-83.6451998058	1.0000000000	649.4926754799	1.0000000000	0.0000000000	0.0000000000
0.1600000000	0.0000000000	1.0000000000	0.0000000000	1.0000000000	0.0000000000	0.0000000000	-76.5872748617	1.0000000000	653.5157726938	1.0000000000	0.0000000000	0.0000000000
0.1700000000	0.0000000000	1.0000000000	0.0000000000	1.0000000000	0.0000000000	0.0000000000	-69.3192303982	1.0000000000	653.5302581034	1.0000000000	0.0000000000	0.0000000000
0.1800000000	0.0000000000	1.0000000000	0.0000000000	1.0000000000	0.0000000000	0.0000000000	-61.8914623919	1.0000000000	649.7739660614	1.0000000000	0.0000000000	0.0000000000
0.1900000000	0.0000000000	1.0000000000	0.0000000000	1.0000000000	0.0000000000	0.0000000000	-54.6445861422	1.0000000000	643.0629062624	1.0000000000	0.0000000000	0.0000000000
0.2000000000	0.0000000000	1.0000000000	0.0000000000	1.0000000000	0.0000000000	0.0000000000	-47.8497846359	1.0000000000	634.1165982279	1.0000000000	0.0000000000	0.0000000000
0.2100000000	0.0148744613	1.0000000000	0.1576528179	1.0000000000	0.0000000000	0.0000000000	-41.8107441348	1.0000000000	623.7116929379	1.0000000000	0.0000000000	0.0000000000
0.2200000000	0.0528334860	1.0000000000	0.2159915068	1.0000000000	0.0000000000	0.0000000000	-36.6933703514	1.0000000000	612.8414297600	1.0000000000	0.0000000000	0.0000000000
0.2300000000	0.0409096826	1.0000000000	0.1622161816	1.0000000000	0.0000000000	0.0000000000	-32.4180562101	1.0000000000	602.5495408098	1.0000000000	0.0000000000	0.0000000000
0.2400000000	0.0212778614	1.0000000000	0.0877698967	1.0000000000	0.0000000000	0.0000000000	-28.7735380257	1.0000000000	593.6125008308	1.0000000000	0.0000000000	0.0000000000
0.2500000000	0.0074175678	1.0000000000	0.0323189175	1.0000000000	0.0000000000	0.0000000000	-25.3830971101	1.0000000000	586.5210892968	1.0000000000	0.0000000000	0.0000000000
0.2600000000	-0.0007355181	1.0000000000	0.0025127477	1.0000000000	0.0000000000	0.0000000000	-21.9973891205	1.0000000000	581.7855066072	1.0000000000	0.0000000000	0.0000000000
0.2700000000	0.0000000000	1.0000000000	0.0000000000	1.0000000000	0.0000000000	0.0000000000	-18.5454607073	1.0000000000	579.7106152421	1.0000000000	0.0000000000	0.0000000000
0.2800000000	0.0000000000	1.0000000000	0.0000000000	1.0000000000	0.0000000000	0.0000000000	-15.0054716898	1.0000000000	579.9509794507	1.0000000000	0.0000000000	0.0000000000
0.2900000000	0.0000000000	1.0000000000	0.0000000000	1.0000000000	0.0000000000	0.0000000000	-11.4760909672	1.0000000000	582.0304687378	1.0000000000	0.0000000000	0.0000000000
0.3000000000	-0.0233566450	1.0000000000	0.0021329020	1.0000000000	0.0000000000	0.0000000000	-8.0943904004	1.0000000000	585.7661033307	1.0000000000	0.0000000000	0.0000000000
0.3100000000	-0.0185161363	1.0000000000	0.0038279357	1.0000000000	0.0000000000	0.0000000000	-4.9084873308	1.0000000000	590.8381702105	1.0000000000	0.0000000000	0.0000000000
0.3200000000	-0.0113925511	1.0000000000	0.0024687579	1.0000000000	0.0000000000	0.0000000000	-1.8716554407	1.0000000000	596.8328636970	1.0000000000	0.0000000000	0.0000000000
0.3300000000	0.0000000000	1.0000000000	0.0000000000	1.0000000000	0.0000000000	0.0000000000	1.1406506364	1.0000000000	603.3874095864	1.0000000000	0.0000000000	0.0000000000
0.3400000000	0.0000000000	1.0000000000	0.0000000000	1.0000000000	0.0000000000	0.0000000000	4.3106971634	1.0000000000	610.1930777555	1.0000000000	0.0000000000	0.0000000000
0.3500000000	0.0000000000	1.0000000000	0.0000000000	1.0000000000	0.0000000000	0.0000000000	7.8465105687	1.0000000000	616.9715896272	1.0000000000	0.0000000000	0.0000000000
0.3600000000	0.0000000000	1.0000000000	0.0000000000	1.0000000000	0.0000000000	0.0000000000	11.9200124716	1.0000000000	623.3079110746	1.0000000000	0.0000000000	0.0000000000
0.3700000000	0.0034776612	1.0000000000	0.0094692452	1.0000000000	0.0000000000	0.0000000000	16.5560923386	1.0000000000	628.9700300743	1.0000000000	0.0000000000	0.0000000000
0.3800000000	0.0077513270	1.0000000000	0.0359104011	1.0000000000	0.0000000000	0.0000000000	21.6008316656	1.0000000000	634.1363231524	1.0000000000	0.0000000000	0.0000000000
0.3900000000	0.0118177826	1.0000000000	0.0831804003	1.0000000000	0.0000000000	0.0000000000	26.8405818609	1.0000000000	639.1760340205	1.0000000000	0.0000000000	0.0000000000
